:SAMPLES-PER-SECOND 30
:FULLY-SPECIFIED
:DEGREES
278
root  -3.06389 40.2102 -31.4066 66.1895 82.5894 60.5862
RightUpLeg  4.64838 -12.0573 -10.6744
RightLeg  8.25245 -11.4247 3.49906
RightFoot  -17.4734 0.144547 4.90079
RightToes  0.000482159 0.542163 -0.142577
Spine  7.71972 0.848151 3.01971
Spine1  6.22601 2.55484 -6.11585
HEad  4.01254 1.29428 -2.42556
LeftShoulder1  7.98666 -11.8305 -45.397
LeftArm  -9.9935 23.3273 -26.507
LeftForeArm  21.6417 -25.2028 -4.24671
LeftHand  -0.25398 0.0180481 5.50724
RightShoulder  5.67766 9.37864 38.0281
RightArm  -4.6508 -15.9397 31.7841
RightForeArm  1.35911 13.173 6.99
RightHand  -0.981387 1.67483 -16.2419
LeftUpLeg  -21.6787 13.8275 -9.81632
LeftLeg  14.8633 7.97801 1.89527
LeftFoot  -4.10933 0.0594002 -0.531184
LeftToes  1.06247e-005 4.65855e-005 -8.18501e-006
279
root  -2.2804 40.0458 -31.5551 66.7693 82.5481 61.3957
RightUpLeg  6.19784 -12.1955 -11.3954
RightLeg  8.38029 -11.2455 3.33048
RightFoot  -18.124 0.214163 5.69948
RightToes  0.000482159 0.542163 -0.142577
Spine  7.5036 1.01167 2.84954
Spine1  6.80815 2.92551 -6.72806
HEad  4.35446 0.508301 -1.70598
LeftShoulder1  7.96061 -11.8154 -45.2897
LeftArm  -8.30054 24.4675 -26.3347
LeftForeArm  21.3531 -23.2118 -3.88647
LeftHand  -0.25398 0.0180481 5.50724
RightShoulder  5.66479 9.36032 37.9922
RightArm  -1.45219 -15.1805 32.2825
RightForeArm  -4.10792 17.0676 6.31777
RightHand  -1.09196 2.13009 -16.9877
LeftUpLeg  -21.7607 14.4314 -9.90109
LeftLeg  14.9918 9.68731 2.35454
LeftFoot  -4.30888 0.0536337 -0.454222
LeftToes  1.06247e-005 4.65855e-005 -8.18501e-006
280
root  -1.36527 39.836 -31.7303 64.3481 82.1813 59.5416
RightUpLeg  7.87593 -12.6166 -12.4657
RightLeg  9.26878 -10.6679 2.812
RightFoot  -19.0629 0.262357 5.79452
RightToes  0.000482159 0.542163 -0.142577
Spine  7.24843 1.37753 2.48288
Spine1  7.5214 3.55948 -7.37784
HEad  5.02185 -0.22813 -0.959008
LeftShoulder1  7.90626 -11.7981 -45.0207
LeftArm  -7.10383 25.8981 -26.2892
LeftForeArm  20.6696 -21.0489 -3.83144
LeftHand  -0.25398 0.0180481 5.50724
RightShoulder  5.68222 9.41689 37.9366
RightArm  1.85381 -14.7084 32.5598
RightForeArm  -8.29892 21.278 5.56446
RightHand  -1.17286 2.41963 -17.575
LeftUpLeg  -21.0387 15.4372 -10.1515
LeftLeg  15.6757 10.5717 2.93406
LeftFoot  -3.77158 -0.0214532 0.664301
LeftToes  1.06247e-005 4.65855e-005 -8.18501e-006
281
root  -0.375318 39.6026 -31.9312 60.6174 81.3214 56.6991
RightUpLeg  9.36401 -13.9338 -14.1395
RightLeg  11.2143 -7.88258 1.58344
RightFoot  -20.2104 0.456113 7.58184
RightToes  0.000482159 0.542163 -0.142577
Spine  7.1174 1.77977 1.46243
Spine1  8.34821 4.20095 -7.9328
HEad  5.91757 -0.616915 -0.2338
LeftShoulder1  7.85999 -11.6991 -45.0499
LeftArm  -7.12113 27.2745 -25.9197
LeftForeArm  20.4041 -18.5819 -4.10345
LeftHand  -0.25398 0.0180481 5.50724
RightShoulder  5.73679 9.53212 37.965
RightArm  2.94172 -13.9657 32.4452
RightForeArm  -8.14105 25.0536 5.7083
RightHand  -1.14913 2.32587 -17.42
LeftUpLeg  -19.8396 17.3528 -10.8661
LeftLeg  17.3992 9.63064 3.42643
LeftFoot  -3.9913 -0.0939276 1.85305
LeftToes  1.06247e-005 4.65855e-005 -8.18501e-006
282
root  0.588399 39.3958 -32.1514 58.7177 80.325 55.8387
RightUpLeg  9.49355 -15.33 -15.8646
RightLeg  15.7474 -4.59762 -0.676695
RightFoot  -20.3938 0.789531 11.824
RightToes  0.000482159 0.542163 -0.142577
Spine  7.38551 1.93618 -0.043685
Spine1  9.01464 4.46809 -8.38291
HEad  6.90323 -0.497069 0.451467
LeftShoulder1  7.83351 -11.5279 -45.422
LeftArm  -8.18302 28.0067 -25.1752
LeftForeArm  20.6288 -15.5439 -4.53409
LeftHand  -0.25398 0.0180481 5.50724
RightShoulder  5.82315 9.64398 38.2367
RightArm  2.53524 -12.6809 32.2515
RightForeArm  -4.60028 28.2559 6.35239
RightHand  -1.04367 2.01279 -16.4971
LeftUpLeg  -18.3109 19.0986 -11.5644
LeftLeg  19.7048 8.26763 3.62901
LeftFoot  -5.9542 -0.056311 1.91303
LeftToes  1.06247e-005 4.65855e-005 -8.18501e-006
283
root  1.48828 39.2961 -32.382 58.1196 79.7112 56.2549
RightUpLeg  6.78697 -12.7975 -16.2794
RightLeg  24.844 -6.91381 -3.9307
RightFoot  -17.4434 0.653542 14.3086
RightToes  0.000482159 0.542163 -0.142577
Spine  8.15547 1.82389 -1.2321
Spine1  9.29434 4.35696 -8.68203
HEad  7.80777 0.0604714 0.981469
LeftShoulder1  7.83154 -11.4347 -45.7026
LeftArm  -9.51697 27.8983 -24.6238
LeftForeArm  20.9258 -12.2077 -4.88549
LeftHand  -0.25398 0.0180481 5.50724
RightShoulder  5.89327 9.71485 38.5182
RightArm  1.5472 -11.3093 32.5041
RightForeArm  -0.763552 31.3253 6.91933
RightHand  -0.95077 1.68526 -15.7334
LeftUpLeg  -16.2489 20.06 -11.7603
LeftLeg  21.1714 7.6813 3.60911
LeftFoot  -8.48336 0.0194891 1.28567
LeftToes  1.06247e-005 4.65855e-005 -8.18501e-006
284
root  2.34861 39.3356 -32.5991 56.8391 79.4322 55.9346
RightUpLeg  1.69951 -9.57946 -15.9628
RightLeg  37.0155 -9.75167 -8.0138
RightFoot  -10.7695 -0.0943457 11.2334
RightToes  0.000482159 0.542163 -0.142577
Spine  9.31071 1.67552 -1.96987
Spine1  9.39552 4.14915 -8.68374
HEad  8.4884 0.838241 1.19876
LeftShoulder1  7.87086 -11.508 -45.7088
LeftArm  -10.3396 27.2354 -24.666
LeftForeArm  21.0518 -9.63027 -4.95358
LeftHand  -0.25398 0.0180481 5.50724
RightShoulder  5.88418 9.73741 38.3792
RightArm  0.294035 -10.3356 33.3401
RightForeArm  1.03364 34.6256 7.70808
RightHand  -0.947825 1.53604 -15.9997
LeftUpLeg  -13.4605 20.9635 -11.5612
LeftLeg  20.8236 7.42665 3.44658
LeftFoot  -9.96655 0.0478756 1.04701
LeftToes  1.06247e-005 4.65855e-005 -8.18501e-006
